<?xml version="1.0" encoding="UTF-8" standalone="no"?>
<svg
   version="1.0"
   width="467.79999pt"
   height="410.94742pt"
   viewBox="0 0 467.79999 410.94742"
   preserveAspectRatio="xMidYMid"
   id="svg16"
   sodipodi:docname="bw (Copy).svg"
   xml:space="preserve"
   inkscape:version="1.3.2 (091e20ef0f, 2023-11-25)"
   xmlns:inkscape="http://www.inkscape.org/namespaces/inkscape"
   xmlns:sodipodi="http://sodipodi.sourceforge.net/DTD/sodipodi-0.dtd"
   xmlns="http://www.w3.org/2000/svg"
   xmlns:svg="http://www.w3.org/2000/svg"><defs
     id="defs16" /><sodipodi:namedview
     id="namedview16"
     pagecolor="#ffffff"
     bordercolor="#000000"
     borderopacity="0.25"
     inkscape:showpageshadow="2"
     inkscape:pageopacity="0.0"
     inkscape:pagecheckerboard="0"
     inkscape:deskcolor="#d1d1d1"
     inkscape:document-units="pt"
     inkscape:zoom="0.98651961"
     inkscape:cx="727.30435"
     inkscape:cy="327.9205"
     inkscape:window-width="1920"
     inkscape:window-height="1011"
     inkscape:window-x="0"
     inkscape:window-y="0"
     inkscape:window-maximized="1"
     inkscape:current-layer="svg16" /><path
     d="m 324.2,4.214452 c -20.4,17.2 -31.3,27.600001 -42.5,40.700001 -9.9,11.5 -15.1,19.4 -13.8,20.6 1.1,0.9 16.5,6.4 16.8,5.9 0.1,-0.2 1.9,-2.6 4.2,-5.3 2.2,-2.8 7,-9.5 10.5,-15 9,-13.8 31.1,-50.60000104 30.6,-51.10000104 -0.2,-0.2 -2.8,1.70000004 -5.8,4.20000004 z"
     id="path1"
     style="fill:#000000;stroke:none;stroke-width:0.1" /><path
     d="m 375.3,24.214453 c -7.4,3 -21.6,9.5 -31.5,14.3 l -18,8.8 -2.7,13.4 c -1.4,7.4 -2.4,13.6 -2.2,13.8 1.2,1.3 69.4,-53.200001 69.4,-55.500001 0,-0.8 -1.7,-0.2 -15,5.200001 z"
     id="path2"
     style="fill:#000000;stroke:none;stroke-width:0.1" /><path
     d="m 309.5,50.914453 c -5.2,7.2 -11.4,15.8 -14,19 l -4.7,5.9 4,3.1 c 2.2,1.7 6.2,5.3 8.9,7.9 2.7,2.7 5,4.7 5.2,4.6 0.2,-0.3 5.7,-26.3 9.2,-44.1 1.1,-5.3 1.7,-9.7 1.3,-9.7 -0.3,0 -4.8,6 -9.9,13.3 z"
     id="path3"
     style="fill:#000000;stroke:none;stroke-width:0.1" /><path
     d="m 78.299998,42.214453 c 0,4 5,21.6 8.7,30.2 5.1,11.9 11.9,22.3 26.300002,40.199997 6.9,8.5 15.8,20.3 19.8,26.3 8.3,12.2 23.2,36.6 23.2,38.1 0,0.5 0.2,0.7 0.5,0.4 0.7,-0.6 -2.4,-11.6 -8.9,-32.7 -2.5,-7.8 -5.3,-17.5 -6.2,-21.5 -2,-8.8 -3.3,-11.3 -11.1,-22.3 C 114,77.514453 78.499998,37.714453 78.299998,42.214453 Z"
     id="path4"
     style="fill:#000000;stroke:none;stroke-width:0.1" /><path
     d="m 232.8,73.214453 c -23.9,5.8 -44.4,26.6 -50.1,50.899997 -2.5,10.7 -1.5,27.7 2.1,37.5 8.3,22.7 26,38.6 49.3,44.1 33.8,8.2 69.2,-12 79.8,-45.6 12.1,-38 -10.8,-78.199997 -49.3,-86.899997 -8.8,-2 -23.6,-2 -31.8,0 z m 36.5,12.1 c 9.1,2.9 16.6,7.7 23.7,15.099997 5.3,5.4 7,8.8 5.9,11.7 -1.2,3.2 -5,1.6 -9.4,-4 -7.4,-9.599997 -20.9,-16.899997 -33.7,-18.199997 -7.7,-0.7 -10.3,-3.3 -6.9,-6.8 2.1,-2.1 9.9,-1.3 20.4,2.2 z"
     id="path5"
     style="fill:#0044aa;fill-opacity:1;stroke:none;stroke-width:0.1" /><path
     d="m 145.3,91.014453 c 0,15.099997 2.3,26.599997 10.9,54.599997 3.8,12.4 7.4,25.1 8.1,28.2 1.2,5.2 1.6,5.8 3.8,5.8 2.4,0 2.4,-0.2 1.8,-4.8 -0.4,-2.6 -1.1,-13.7 -1.6,-24.8 -1.6,-34.3 -3.9,-43.3 -16.2,-62.699997 -2.8,-4.2 -5.4,-7.7 -5.9,-7.7 -0.5,0 -0.9,5.2 -0.9,11.4 z"
     id="path6"
     style="fill:#000000;stroke:none;stroke-width:0.1" /><path
     d="m 322.7,121.21445 c 0.4,1 1.2,6.5 1.9,12.1 l 1.1,10.2 4.8,1.1 c 12.4,2.6 23.9,3.2 40.1,2.1 52.8,-3.5 86.7,-6.8 94.2,-9 l 3,-0.8 -2.5,-0.6 c -1.4,-0.3 -12.2,-1.1 -24,-1.7 -40.6,-2.1 -66.3,-4.4 -85,-7.6 -8,-1.4 -26.6,-5.5 -31.9,-7 -2.1,-0.6 -2.3,-0.5 -1.7,1.2 z"
     id="path7"
     style="fill:#000000;stroke:none;stroke-width:0.1" /><path
     d="m 322.5,158.71445 c -0.6,2.4 -0.9,4.5 -0.6,4.8 1.3,1.4 22.8,5.2 34.6,6.2 10.6,0.9 17,0.9 28,0 12.8,-1.1 31.1,-4.1 32.4,-5.3 0.2,-0.3 -8.2,-0.8 -18.8,-1.1 -29.1,-1 -52.6,-3.7 -72.4,-8.4 -1.8,-0.4 -2.3,0.2 -3.2,3.8 z"
     id="path8"
     style="fill:#000000;stroke:none;stroke-width:0.1" /><path
     d="m 7.3,161.51445 c 3.5,2.2 23.900001,8.3 35.199998,10.5 6.8,1.4 20.4,3.4 30.3,4.6 25.8,3 36.200002,5 51.700002,10.1 3.8,1.2 8.8,0.2 8.8,-1.9 0,-1.3 -14.5,-9.3 -23.5,-12.9 -9.6,-3.8 -20.500002,-6.7 -34.200002,-8.9 -11.2,-1.9 -70.899998,-3.2 -68.299998,-1.5 z"
     id="path9"
     style="fill:#000000;stroke:none;stroke-width:0.1" /><path
     d="m 315.4,176.01445 c -1.7,3.1 -3.1,6 -3.1,6.6 0,1.7 11.4,8.5 20.6,12.4 9.3,3.9 27.2,9.1 28.2,8.2 0.9,-0.9 -8.4,-13.8 -15.1,-20.9 -6.2,-6.6 -6.2,-6.6 -15.4,-8.7 -5.1,-1.1 -9.9,-2.3 -10.7,-2.6 -0.9,-0.3 -2.4,1.4 -4.5,5 z"
     id="path10"
     style="fill:#000000;stroke:none;stroke-width:0.1" /><path
     d="m 147.1,189.11445 c -22,5.4 -40.5,21.9 -48.100002,43.1 -9.2,25.6 -3.4,51.6 15.800002,71 8.9,9 15.2,12.9 27,17 7,2.5 9.5,2.8 20.5,2.8 11.2,0.1 13.4,-0.2 21.4,-2.8 27.8,-9.1 46.8,-35.1 46.9,-64.1 0.1,-12.1 -1.6,-19.2 -7,-30.5 -3.9,-8 -5.9,-10.8 -13.2,-18.1 -7,-7 -10.2,-9.4 -17.1,-12.7 -4.7,-2.3 -11.4,-4.8 -15,-5.6 -8,-1.9 -23.5,-1.9 -31.2,-0.1 z m 27,10 c 13.2,2.7 26,10.5 33.5,20.1 4,5.1 4.5,7.5 2.2,9.4 -2.2,1.8 -4.6,0.4 -9.2,-5.4 -7.4,-9.4 -20,-16.1 -32.3,-17.3 -8.8,-0.8 -11.2,-3 -7.4,-6.7 1.9,-2 4.4,-2 13.2,-0.1 z"
     id="path11"
     style="fill:#0044aa;stroke:none;stroke-width:0.1" /><path
     d="m 16.4,197.01445 -16.4,1.1 3.7,1.8 c 7.9,3.7 22.200001,8.9 31.200001,11.3 15.999997,4.3 25.299997,5.6 43.999997,6.1 l 18.2,0.6 1.2,-2.4 c 0.7,-1.3 3.400002,-5 6.100002,-8.1 l 4.9,-5.6 -3.3,-1.1 c -10.400002,-3.5 -18.700002,-4.3 -45.700002,-4.6 -15.1,-0.2 -34.899997,0.2 -43.899998,0.9 z"
     id="path12"
     style="fill:#000000;stroke:none;stroke-width:0.1" /><path
     d="m 292.3,206.51445 c -13.8,3.9 -24.8,10.6 -34,20.8 -6.3,7.1 -13.6,21.4 -15.5,30.8 -9.1,43.7 25.8,84.7 70,82.2 25.6,-1.5 47,-15.9 58.2,-39.2 15.9,-33.4 0.3,-75.8 -33.4,-90.7 -13.7,-6 -32,-7.6 -45.3,-3.9 z m 29.6,10.6 c 9.6,2 15.2,4.5 23.1,10.1 6.9,4.9 14.3,13.8 14.3,17.2 0,1.5 -0.8,2.4 -2.7,2.8 -2.2,0.6 -3,0.2 -4.2,-1.7 -2.9,-4.7 -13.1,-13.8 -18.5,-16.4 -6.7,-3.3 -14.8,-5.5 -20.3,-5.5 -3.2,0 -4.5,-0.5 -5.3,-1.9 -1.3,-2.5 -1.3,-2.7 0.6,-4.5 1.9,-2 3.6,-2 13,-0.1 z"
     id="path13"
     style="fill:#0044aa;stroke:none;stroke-width:0.1" /><path
     d="m 233.3,293.61445 c -4.4,16.2 -6.2,47.2 -4.1,68.5 1.7,17 6.1,47.9 7,48.8 0.8,0.9 6,-16.8 9.2,-31.3 2.8,-12.8 5.6,-33.1 6.5,-46.2 l 0.7,-10.7 -3,-3.8 c -4.4,-5.6 -9.2,-14.4 -11.8,-21.9 -1.2,-3.6 -2.5,-6.8 -2.8,-7.1 -0.3,-0.3 -1.1,1.4 -1.7,3.7 z"
     id="path14"
     style="fill:#000000;stroke:none;stroke-width:0.1" /><path
     d="m 211.4,313.61445 c -2.5,2.2 -7.2,5.5 -10.6,7.5 l -6.1,3.5 -8.1,15.8 c -7,13.6 -14.3,31.2 -14.3,34.4 0,2.8 11.3,-11.1 21.7,-26.7 6.5,-9.6 22.7,-37.5 22.1,-38 -0.2,-0.2 -2.3,1.4 -4.7,3.5 z"
     id="path15"
     style="fill:#000000;stroke:none;stroke-width:0.1" /><path
     d="m 262.3,334.51445 c 0,4.4 3.7,20.7 6.6,29.3 3.4,10.2 9.6,23 10.5,22.1 0.5,-0.5 1.2,-10.3 1.5,-21.9 l 0.7,-21 -6.6,-3.2 c -3.7,-1.8 -8,-4.5 -9.7,-5.8 l -3,-2.6 z"
     id="path16"
     style="fill:#000000;stroke:none;stroke-width:0.1" /></svg>
