<?xml version="1.0" encoding="UTF-8" standalone="no"?>
<!-- Created with Inkscape (http://www.inkscape.org/) -->

<svg
   width="209.57149mm"
   height="57.289268mm"
   viewBox="0 0 209.57149 57.289268"
   version="1.1"
   id="svg1"
   inkscape:version="1.3.2 (091e20ef0f, 2023-11-25)"
   sodipodi:docname="logo_banner.svg"
   xmlns:inkscape="http://www.inkscape.org/namespaces/inkscape"
   xmlns:sodipodi="http://sodipodi.sourceforge.net/DTD/sodipodi-0.dtd"
   xmlns="http://www.w3.org/2000/svg"
   xmlns:svg="http://www.w3.org/2000/svg">
  <sodipodi:namedview
     id="namedview1"
     pagecolor="#ffffff"
     bordercolor="#000000"
     borderopacity="0.25"
     inkscape:showpageshadow="2"
     inkscape:pageopacity="0.0"
     inkscape:pagecheckerboard="0"
     inkscape:deskcolor="#d1d1d1"
     inkscape:document-units="mm"
     inkscape:zoom="1.0141844"
     inkscape:cx="336.72379"
     inkscape:cy="263.75875"
     inkscape:window-width="1920"
     inkscape:window-height="1011"
     inkscape:window-x="0"
     inkscape:window-y="0"
     inkscape:window-maximized="1"
     inkscape:current-layer="layer1" />
  <defs
     id="defs1" />
  <g
     inkscape:label="Layer 1"
     inkscape:groupmode="layer"
     id="layer1"
     transform="translate(-0.17552368,-0.15275136)">
    <rect
       style="fill:#ffffff;fill-opacity:0;stroke-width:0.0202989"
       id="rect1"
       width="209.57149"
       height="57.289268"
       x="0.17552368"
       y="0.15275136" />
    <g
       id="g1"
       transform="matrix(0.35597406,0,0,0.35597406,24.87032,51.131233)">
      <g
         id="g2"
         transform="matrix(1.0764138,0,0,1.0764138,-10.315428,8.7250717)">
        <path
           d="m 249.36488,-136.93442 c -7.19666,6.06778 -11.04194,9.73667 -14.99305,14.35806 -3.4925,4.05694 -5.32695,6.84389 -4.86834,7.26722 0.38806,0.3175 5.82084,2.25778 5.92667,2.08139 0.0353,-0.0705 0.67028,-0.91722 1.48167,-1.86972 0.77611,-0.98778 2.46944,-3.35139 3.70416,-5.29167 3.175,-4.86833 10.97139,-17.85055 10.795,-18.02694 -0.0706,-0.0706 -0.98777,0.59972 -2.04611,1.48166 z"
           id="path1"
           style="fill:#000000;stroke:none;stroke-width:0.0352778" />
        <path
           d="m 267.39183,-129.87886 c -2.61056,1.05833 -7.62,3.35139 -11.1125,5.04472 l -6.35,3.10445 -0.9525,4.72722 c -0.49389,2.61055 -0.84667,4.79778 -0.77611,4.86833 0.42333,0.45861 24.48277,-18.76778 24.48277,-19.57916 0,-0.28223 -0.59972,-0.0706 -5.29166,1.83444 z"
           id="path2"
           style="fill:#000000;stroke:none;stroke-width:0.0352778" />
        <path
           d="m 244.17905,-120.45969 c -1.83444,2.54 -4.02167,5.57389 -4.93889,6.70277 l -1.65805,2.08139 1.41111,1.09361 c 0.77611,0.59973 2.18722,1.86973 3.13972,2.78695 0.9525,0.9525 1.76389,1.65805 1.83444,1.62278 0.0706,-0.10584 2.01084,-9.27806 3.24556,-15.5575 0.38805,-1.86972 0.59972,-3.42195 0.45861,-3.42195 -0.10583,0 -1.69333,2.11667 -3.4925,4.69195 z"
           id="path3"
           style="fill:#000000;stroke:none;stroke-width:0.0352778" />
        <path
           d="m 162.61683,-123.52886 c 0,1.41111 1.76389,7.62 3.06917,10.65389 1.79916,4.19805 4.19805,7.86694 9.27805,14.181665 2.43417,2.998611 5.57389,7.161388 6.985,9.278055 2.92806,4.303889 8.18445,12.911666 8.18445,13.440833 0,0.176389 0.0705,0.246944 0.17638,0.141111 0.24695,-0.211667 -0.84666,-4.092222 -3.13972,-11.535833 -0.88194,-2.751667 -1.86972,-6.173611 -2.18722,-7.584722 -0.70556,-3.104444 -1.16417,-3.986389 -3.91583,-7.866939 -5.85611,-8.255 -18.37973,-22.29556 -18.45028,-20.70806 z"
           id="path4"
           style="fill:#000000;stroke:none;stroke-width:0.0352778" />
        <path
           d="m 217.12099,-112.59275 c -8.43138,2.04611 -15.66333,9.38389 -17.67416,17.956389 -0.88195,3.774722 -0.52917,9.771944 0.74083,13.229166 2.92806,8.008056 9.17222,13.617222 17.39195,15.5575 11.92388,2.892778 24.41222,-4.233333 28.15166,-16.086666 4.26861,-13.405556 -3.81,-27.587219 -17.39194,-30.656389 -3.10445,-0.70555 -8.32556,-0.70555 -11.21834,0 z m 12.87639,4.26861 c 3.21028,1.02306 5.85611,2.71639 8.36084,5.32695 1.86972,1.905 2.46944,3.10444 2.08139,4.127496 -0.42334,1.128889 -1.76389,0.564444 -3.31612,-1.411106 -2.61055,-3.38667 -7.37305,-5.96195 -11.88861,-6.42056 -2.71639,-0.24694 -3.63361,-1.16417 -2.43416,-2.39889 0.74083,-0.74083 3.4925,-0.45861 7.19666,0.77611 z"
           id="path5"
           style="fill:#0044aa;fill-opacity:1;stroke:none;stroke-width:0.0352778" />
        <path
           d="m 186.25294,-106.3133 c 0,5.32694 0.81139,9.383883 3.84528,19.261661 1.34055,4.374444 2.61055,8.854722 2.8575,9.948333 0.42333,1.834444 0.56444,2.046111 1.34055,2.046111 0.84667,0 0.84667,-0.07055 0.635,-1.693333 -0.14111,-0.917222 -0.38805,-4.833056 -0.56444,-8.748889 -0.56445,-12.100277 -1.37583,-15.275273 -5.715,-22.119163 -0.98778,-1.48167 -1.905,-2.71639 -2.08139,-2.71639 -0.17639,0 -0.3175,1.83444 -0.3175,4.02167 z"
           id="path6"
           style="fill:#000000;stroke:none;stroke-width:0.0352778" />
        <path
           d="m 248.83572,-95.659417 c 0.14111,0.352778 0.42333,2.293056 0.67027,4.268611 l 0.38806,3.598334 1.69333,0.388055 c 4.37445,0.917222 8.43139,1.128889 14.14639,0.740833 18.62667,-1.234722 30.58583,-2.398888 33.23167,-3.174999 l 1.05833,-0.282223 -0.88194,-0.211666 c -0.49389,-0.105834 -4.30389,-0.388056 -8.46667,-0.599723 -14.32278,-0.740833 -23.38917,-1.552222 -29.98611,-2.681111 -2.82222,-0.493888 -9.38389,-1.940277 -11.25361,-2.469444 -0.74083,-0.211667 -0.81139,-0.176389 -0.59972,0.423333 z"
           id="path7"
           style="fill:#000000;stroke:none;stroke-width:0.0352778" />
        <path
           d="m 248.76516,-82.43025 c -0.21167,0.846666 -0.3175,1.5875 -0.21167,1.693333 0.45862,0.493889 8.04334,1.834444 12.20612,2.187222 3.73944,0.3175 5.99722,0.3175 9.87777,0 4.51556,-0.388055 10.97139,-1.446389 11.43,-1.869722 0.0706,-0.105833 -2.89278,-0.282222 -6.63222,-0.388056 -10.26583,-0.352777 -18.55611,-1.305277 -25.54111,-2.963333 -0.635,-0.141111 -0.81139,0.07056 -1.12889,1.340556 z"
           id="path8"
           style="fill:#000000;stroke:none;stroke-width:0.0352778" />
        <path
           d="m 137.56961,-81.442473 c 1.23472,0.776112 8.43139,2.928056 12.41777,3.704167 2.39889,0.493889 7.19667,1.199444 10.68917,1.622778 9.10167,1.058333 12.77056,1.763889 18.23861,3.563055 1.34056,0.423334 3.10445,0.07056 3.10445,-0.670277 0,-0.458612 -5.11528,-3.280834 -8.29028,-4.550834 -3.38667,-1.340555 -7.23195,-2.363611 -12.065,-3.139722 -3.95111,-0.670278 -25.01194,-1.128889 -24.09472,-0.529167 z"
           id="path9"
           style="fill:#000000;stroke:none;stroke-width:0.0352778" />
        <path
           d="m 246.26044,-76.327195 c -0.59972,1.093611 -1.09361,2.116667 -1.09361,2.328333 0,0.599723 4.02166,2.998611 7.26722,4.374445 3.28083,1.375833 9.59555,3.210277 9.94833,2.892778 0.3175,-0.3175 -2.96333,-4.868334 -5.32694,-7.373056 -2.18722,-2.328333 -2.18722,-2.328333 -5.43278,-3.069166 -1.79917,-0.388056 -3.4925,-0.811389 -3.77472,-0.917223 -0.3175,-0.105833 -0.84667,0.493889 -1.5875,1.763889 z"
           id="path10"
           style="fill:#000000;stroke:none;stroke-width:0.0352778" />
        <path
           d="m 186.88794,-71.705806 c -7.76111,1.905 -14.2875,7.725833 -16.96861,15.204722 -3.24556,9.031111 -1.19945,18.203333 5.57389,25.047222 3.13972,3.174999 5.36222,4.550833 9.525,5.997222 2.46944,0.881944 3.35139,0.987777 7.23194,0.987777 3.95111,0.03528 4.72722,-0.07056 7.54945,-0.987777 9.80722,-3.210278 16.51,-12.3825 16.54527,-22.613055 0.0353,-4.268611 -0.56444,-6.773334 -2.46944,-10.759722 -1.37583,-2.822223 -2.08139,-3.81 -4.65667,-6.385278 -2.46944,-2.469444 -3.59833,-3.316111 -6.0325,-4.480278 -1.65805,-0.811389 -4.02166,-1.693333 -5.29166,-1.975555 -2.82223,-0.670278 -8.29028,-0.670278 -11.00667,-0.03528 z m 9.525,3.527778 c 4.65667,0.9525 9.17222,3.704166 11.81806,7.090833 1.41111,1.799166 1.5875,2.645833 0.77611,3.316111 -0.77611,0.635 -1.62278,0.141111 -3.24556,-1.905 -2.61055,-3.316111 -7.05555,-5.679722 -11.39472,-6.103056 -3.10445,-0.282222 -3.95111,-1.058333 -2.61056,-2.363611 0.67028,-0.705555 1.55223,-0.705555 4.65667,-0.03528 z"
           id="path11"
           style="fill:#0044aa;stroke:none;stroke-width:0.0352778" />
        <path
           d="m 140.77989,-68.918862 -5.78556,0.388056 1.30528,0.635 c 2.78694,1.305278 7.83166,3.139722 11.00666,3.986389 5.64445,1.516944 8.92528,1.975555 15.52223,2.151944 l 6.42055,0.211667 0.42333,-0.846667 c 0.24695,-0.458611 1.19945,-1.763889 2.15195,-2.8575 l 1.72861,-1.975555 -1.16417,-0.388056 c -3.66889,-1.234722 -6.59694,-1.516944 -16.12194,-1.622778 -5.32695,-0.07055 -12.31194,0.07056 -15.48694,0.3175 z"
           id="path12"
           style="fill:#000000;stroke:none;stroke-width:0.0352778" />
        <path
           d="m 238.11127,-65.567473 c -4.86833,1.375833 -8.74889,3.739445 -11.99444,7.337778 -2.2225,2.504722 -4.79778,7.549444 -5.46806,10.865555 -3.21028,15.416389 9.10167,29.880277 24.69445,28.998333 9.03111,-0.529167 16.58055,-5.609167 20.53166,-13.828889 5.60917,-11.782777 0.10584,-26.740555 -11.78277,-31.996944 -4.83306,-2.116666 -11.28889,-2.681111 -15.98084,-1.375833 z m 10.44222,3.739445 c 3.38667,0.705555 5.36223,1.587499 8.14917,3.563055 2.43417,1.728611 5.04472,4.868333 5.04472,6.067778 0,0.529166 -0.28222,0.846666 -0.9525,0.987777 -0.77611,0.211667 -1.05833,0.07056 -1.48166,-0.599722 -1.02306,-1.658055 -4.62139,-4.868333 -6.52639,-5.785555 -2.36361,-1.164167 -5.22111,-1.940278 -7.16139,-1.940278 -1.12889,0 -1.5875,-0.176389 -1.86972,-0.670278 -0.45861,-0.881944 -0.45861,-0.9525 0.21166,-1.5875 0.67028,-0.705555 1.27,-0.705555 4.58611,-0.03528 z"
           id="path13"
           style="fill:#0044aa;stroke:none;stroke-width:0.0352778" />
        <path
           d="m 217.29738,-34.840529 c -1.55222,5.715 -2.18722,16.651111 -1.44639,24.165278 0.59973,5.9972216 2.15195,16.8980544 2.46945,17.2155544 0.28222,0.3175 2.11667,-5.92666625 3.24555,-11.0419439 0.98778,-4.5155554 1.97556,-11.6769445 2.29306,-16.2983335 l 0.24694,-3.774722 -1.05833,-1.340556 c -1.55222,-1.975555 -3.24555,-5.079999 -4.16278,-7.725833 -0.42333,-1.27 -0.88194,-2.398889 -0.98777,-2.504722 -0.10584,-0.105833 -0.38806,0.493889 -0.59973,1.305278 z"
           id="path14"
           style="fill:#000000;stroke:none;stroke-width:0.0352778" />
        <path
           d="m 209.57155,-27.784974 c -0.88194,0.776111 -2.54,1.940278 -3.73944,2.645834 l -2.15195,1.234722 -2.8575,5.573889 c -2.46944,4.797778 -5.04472,11.0066664 -5.04472,12.1355552 0,0.9877777 3.98639,-3.9158332 7.65528,-9.4191672 2.29305,-3.386666 8.00805,-13.229166 7.79639,-13.405555 -0.0706,-0.07055 -0.81139,0.493889 -1.65806,1.234722 z"
           id="path15"
           style="fill:#000000;stroke:none;stroke-width:0.0352778" />
        <path
           d="m 227.52794,-20.411918 c 0,1.552222 1.30528,7.3025 2.32833,10.336389 1.19945,3.598333 3.38667,8.1138885 3.70417,7.7963885 0.17639,-0.1763889 0.42333,-3.633611 0.52917,-7.7258335 l 0.24694,-7.408333 -2.32833,-1.128889 c -1.30528,-0.635 -2.82223,-1.5875 -3.42195,-2.046111 l -1.05833,-0.917222 z"
           id="path16"
           style="fill:#000000;stroke:none;stroke-width:0.0352778" />
      </g>
    </g>
  </g>
</svg>
